# Blender v2.90.1 OBJ File: ''
# www.blender.org
mtllib cylinder-flash.mtl
o Cylinder
v 0.000000 0.032016 -1.000000
v 0.000000 6.376411 -0.628559
v 0.195090 0.032016 -0.980785
v 0.122626 6.376411 -0.616482
v 0.382683 0.032016 -0.923880
v 0.240539 6.376411 -0.580713
v 0.555570 0.032016 -0.831470
v 0.349209 6.376411 -0.522628
v 0.707107 0.032016 -0.707107
v 0.444459 6.376411 -0.444459
v 0.831470 0.032016 -0.555570
v 0.522628 6.376411 -0.349209
v 0.923880 0.032016 -0.382683
v 0.580713 6.376411 -0.240539
v 0.980785 0.032016 -0.195090
v 0.616482 6.376411 -0.122626
v 1.000000 0.032016 -0.000000
v 0.628559 6.376411 -0.000000
v 0.980785 0.032016 0.195090
v 0.616482 6.376411 0.122626
v 0.923880 0.032016 0.382683
v 0.580713 6.376411 0.240539
v 0.831470 0.032016 0.555570
v 0.522628 6.376411 0.349209
v 0.707107 0.032016 0.707107
v 0.444459 6.376411 0.444458
v 0.555570 0.032016 0.831470
v 0.349209 6.376411 0.522628
v 0.382683 0.032016 0.923880
v 0.240539 6.376411 0.580713
v 0.195090 0.032016 0.980785
v 0.122626 6.376411 0.616482
v -0.000000 0.032016 1.000000
v -0.000000 6.376411 0.628559
v -0.195091 0.032016 0.980785
v -0.122626 6.376411 0.616482
v -0.382684 0.032016 0.923879
v -0.240539 6.376411 0.580713
v -0.555571 0.032016 0.831469
v -0.349209 6.376411 0.522628
v -0.707107 0.032016 0.707106
v -0.444459 6.376411 0.444458
v -0.831470 0.032016 0.555570
v -0.522628 6.376411 0.349208
v -0.923880 0.032016 0.382683
v -0.580713 6.376411 0.240539
v -0.980785 0.032016 0.195089
v -0.616482 6.376411 0.122625
v -1.000000 0.032016 -0.000001
v -0.628559 6.376411 -0.000001
v -0.980785 0.032016 -0.195091
v -0.616482 6.376411 -0.122627
v -0.923879 0.032016 -0.382684
v -0.580713 6.376411 -0.240540
v -0.831469 0.032016 -0.555571
v -0.522627 6.376411 -0.349210
v -0.707106 0.032016 -0.707108
v -0.444458 6.376411 -0.444459
v -0.555569 0.032016 -0.831470
v -0.349208 6.376411 -0.522629
v -0.382682 0.032016 -0.923880
v -0.240538 6.376411 -0.580714
v -0.195089 0.032016 -0.980786
v -0.122625 6.376411 -0.616482
vt 0.114307 1.000000
vt 0.109529 0.002153
vt 0.125389 0.001925
vt 0.139539 0.999637
vt 0.140329 0.001477
vt 0.163307 0.998925
vt 0.153774 0.000827
vt 0.184698 0.997891
vt 0.165208 0.000000
vt 0.202889 0.996575
vt 0.572291 0.002794
vt 0.536405 0.999620
vt 0.522964 0.998874
vt 0.550906 0.001608
vt 0.508027 0.998320
vt 0.527142 0.000726
vt 0.492168 0.997979
vt 0.501913 0.000183
vt 0.475998 0.997864
vt 0.476187 0.000000
vt 0.460138 0.997979
vt 0.450954 0.000183
vt 0.445196 0.998320
vt 0.427183 0.000726
vt 0.431748 0.998874
vt 0.405787 0.001608
vt 0.420310 0.999620
vt 0.387590 0.002794
vt 0.738798 0.002109
vt 0.707874 0.999173
vt 0.694429 0.998523
vt 0.717407 0.001075
vt 0.679489 0.998075
vt 0.693639 0.000363
vt 0.663629 0.997847
vt 0.668408 0.000000
vt 0.647459 0.997847
vt 0.642681 0.000000
vt 0.631599 0.998075
vt 0.617450 0.000363
vt 0.616660 0.998523
vt 0.593682 0.001075
vt 0.603214 0.999173
vt 0.572291 0.002109
vt 0.387590 0.002794
vt 0.354870 0.999620
vt 0.343432 0.998874
vt 0.369393 0.001608
vt 0.329984 0.998320
vt 0.347997 0.000726
vt 0.315042 0.997979
vt 0.324226 0.000183
vt 0.299182 0.997864
vt 0.298993 0.000000
vt 0.283012 0.997979
vt 0.273267 0.000183
vt 0.267153 0.998320
vt 0.248038 0.000726
vt 0.252216 0.998874
vt 0.224274 0.001608
vt 0.238775 0.999620
vt 0.202889 0.002794
vt 0.000000 0.996575
vt 0.037680 0.000000
vt 0.049115 0.000827
vt 0.018191 0.997891
vt 0.062560 0.001477
vt 0.039582 0.998925
vt 0.077499 0.001925
vt 0.063350 0.999637
vt 0.741953 0.439383
vt 0.738798 0.420407
vt 0.738798 0.401060
vt 0.741953 0.382085
vt 0.748141 0.364210
vt 0.757124 0.348124
vt 0.768559 0.334443
vt 0.782004 0.323695
vt 0.796943 0.316291
vt 0.812803 0.312516
vt 0.828974 0.312516
vt 0.844833 0.316291
vt 0.859773 0.323695
vt 0.873218 0.334443
vt 0.884652 0.348124
vt 0.893636 0.364210
vt 0.899824 0.382085
vt 0.902979 0.401060
vt 0.902979 0.420407
vt 0.899824 0.439383
vt 0.893636 0.457257
vt 0.884652 0.473344
vt 0.873218 0.487024
vt 0.859773 0.497773
vt 0.844833 0.505177
vt 0.828974 0.508951
vt 0.812803 0.508951
vt 0.796943 0.505177
vt 0.782004 0.497773
vt 0.768559 0.487024
vt 0.757124 0.473344
vt 0.748141 0.457257
vt 0.093359 0.002153
vt 0.088581 1.000000
vt 0.738798 0.171648
vt 0.738798 0.140868
vt 0.743817 0.110679
vt 0.753662 0.082242
vt 0.767954 0.056649
vt 0.786146 0.034885
vt 0.807536 0.017784
vt 0.831304 0.006005
vt 0.856536 0.000000
vt 0.882262 0.000000
vt 0.907494 0.006005
vt 0.931262 0.017784
vt 0.952652 0.034884
vt 0.970843 0.056649
vt 0.985136 0.082242
vt 0.994981 0.110679
vt 1.000000 0.140868
vt 1.000000 0.171648
vt 0.994981 0.201837
vt 0.985136 0.230274
vt 0.970843 0.255867
vt 0.952652 0.277632
vt 0.931262 0.294732
vt 0.907494 0.306511
vt 0.882262 0.312516
vt 0.856536 0.312516
vt 0.831304 0.306511
vt 0.807536 0.294732
vt 0.786146 0.277632
vt 0.767954 0.255867
vt 0.753662 0.230274
vt 0.743817 0.201837
vn 0.0000 0.0584 -0.9983
vn 0.1948 0.0584 -0.9791
vn 0.3820 0.0584 -0.9223
vn 0.5546 0.0584 -0.8300
vn 0.7059 0.0584 -0.7059
vn 0.8300 0.0584 -0.5546
vn 0.9223 0.0584 -0.3820
vn 0.9791 0.0584 -0.1948
vn 0.9983 0.0584 -0.0000
vn 0.9791 0.0584 0.1948
vn 0.9223 0.0584 0.3820
vn 0.8300 0.0584 0.5546
vn 0.7059 0.0584 0.7059
vn 0.5546 0.0584 0.8300
vn 0.3820 0.0584 0.9223
vn 0.1948 0.0584 0.9791
vn -0.0000 0.0584 0.9983
vn -0.1948 0.0584 0.9791
vn -0.3820 0.0584 0.9223
vn -0.5546 0.0584 0.8300
vn -0.7059 0.0584 0.7059
vn -0.8300 0.0584 0.5546
vn -0.9223 0.0584 0.3820
vn -0.9791 0.0584 0.1948
vn -0.9983 0.0584 -0.0000
vn -0.9791 0.0584 -0.1948
vn -0.9223 0.0584 -0.3820
vn -0.8300 0.0584 -0.5546
vn -0.7059 0.0584 -0.7059
vn -0.5546 0.0584 -0.8300
vn -0.3820 0.0584 -0.9223
vn 0.0000 1.0000 0.0000
vn -0.1948 0.0584 -0.9791
vn 0.0000 -1.0000 0.0000
usemtl None
s 1
f 1/1/1 2/2/1 4/3/2 3/4/2
f 3/4/2 4/3/2 6/5/3 5/6/3
f 5/6/3 6/5/3 8/7/4 7/8/4
f 7/8/4 8/7/4 10/9/5 9/10/5
f 9/11/5 10/12/5 12/13/6 11/14/6
f 11/14/6 12/13/6 14/15/7 13/16/7
f 13/16/7 14/15/7 16/17/8 15/18/8
f 15/18/8 16/17/8 18/19/9 17/20/9
f 17/20/9 18/19/9 20/21/10 19/22/10
f 19/22/10 20/21/10 22/23/11 21/24/11
f 21/24/11 22/23/11 24/25/12 23/26/12
f 23/26/12 24/25/12 26/27/13 25/28/13
f 25/29/13 26/30/13 28/31/14 27/32/14
f 27/32/14 28/31/14 30/33/15 29/34/15
f 29/34/15 30/33/15 32/35/16 31/36/16
f 31/36/16 32/35/16 34/37/17 33/38/17
f 33/38/17 34/37/17 36/39/18 35/40/18
f 35/40/18 36/39/18 38/41/19 37/42/19
f 37/42/19 38/41/19 40/43/20 39/44/20
f 39/45/20 40/46/20 42/47/21 41/48/21
f 41/48/21 42/47/21 44/49/22 43/50/22
f 43/50/22 44/49/22 46/51/23 45/52/23
f 45/52/23 46/51/23 48/53/24 47/54/24
f 47/54/24 48/53/24 50/55/25 49/56/25
f 49/56/25 50/55/25 52/57/26 51/58/26
f 51/58/26 52/57/26 54/59/27 53/60/27
f 53/60/27 54/59/27 56/61/28 55/62/28
f 55/63/28 56/64/28 58/65/29 57/66/29
f 57/66/29 58/65/29 60/67/30 59/68/30
f 59/68/30 60/67/30 62/69/31 61/70/31
f 4/71/32 2/72/32 64/73/32 62/74/32 60/75/32 58/76/32 56/77/32 54/78/32 52/79/32 50/80/32 48/81/32 46/82/32 44/83/32 42/84/32 40/85/32 38/86/32 36/87/32 34/88/32 32/89/32 30/90/32 28/91/32 26/92/32 24/93/32 22/94/32 20/95/32 18/96/32 16/97/32 14/98/32 12/99/32 10/100/32 8/101/32 6/102/32
f 61/70/31 62/69/31 64/103/33 63/104/33
f 63/104/33 64/103/33 2/2/1 1/1/1
f 1/105/34 3/106/34 5/107/34 7/108/34 9/109/34 11/110/34 13/111/34 15/112/34 17/113/34 19/114/34 21/115/34 23/116/34 25/117/34 27/118/34 29/119/34 31/120/34 33/121/34 35/122/34 37/123/34 39/124/34 41/125/34 43/126/34 45/127/34 47/128/34 49/129/34 51/130/34 53/131/34 55/132/34 57/133/34 59/134/34 61/135/34 63/136/34
